<svg width="21" height="16" viewBox="0 0 21 16" fill="none" xmlns="http://www.w3.org/2000/svg">
<path d="M16.8 8.88885C16.8 9.13329 16.6457 9.33329 16.4571 9.33329H4.11428C3.92571 9.33329 3.77142 9.13329 3.77142 8.88885V7.11107C3.77142 6.86663 3.92571 6.66663 4.11428 6.66663H16.4571C16.6457 6.66663 16.8 6.86663 16.8 7.11107V8.88885Z" fill="#818694"/>
<path d="M13.3333 15.5555C13.3333 15.8 13.0533 16 12.7111 16H7.73331C7.39108 16 7.11108 15.8 7.11108 15.5555V13.7778C7.11108 13.5333 7.39108 13.3333 7.73331 13.3333H12.7111C13.0533 13.3333 13.3333 13.5333 13.3333 13.7778V15.5555Z" fill="#818694"/>
<path d="M20.5714 2.22222C20.5714 2.46667 20.4171 2.66667 20.2286 2.66667H0.342857C0.154286 2.66667 0 2.46667 0 2.22222V0.444444C0 0.2 0.154286 0 0.342857 0H20.2286C20.4171 0 20.5714 0.2 20.5714 0.444444V2.22222Z" fill="#818694"/>
</svg>
