<svg width="20" height="28" viewBox="0 0 20 28" fill="none" xmlns="http://www.w3.org/2000/svg">
<path d="M9.99998 4.66664C4.85367 4.66664 0.666626 8.85368 0.666626 14C0.666626 19.1463 4.85367 23.3333 9.99998 23.3333C15.1463 23.3333 19.3333 19.1463 19.3333 14C19.3333 8.85368 15.1463 4.66664 9.99998 4.66664ZM13.3291 17.3291C13.2152 17.443 13.0659 17.5 12.9166 17.5C12.7674 17.5 12.6181 17.443 12.5042 17.3291L10.2842 15.1091C10.1908 15.1332 10.1007 15.1666 9.99992 15.1666C9.3562 15.1666 8.83328 14.6431 8.83328 14C8.83328 13.5738 9.07434 13.2162 9.41663 13.0126V8.74999C9.41663 8.42756 9.67754 8.16664 9.99998 8.16664C10.3224 8.16664 10.5833 8.42756 10.5833 8.74999V13.0126C10.9256 13.2162 11.1667 13.5738 11.1667 14C11.1667 14.1007 11.1333 14.1909 11.1092 14.2843L13.3291 16.5042C13.557 16.7321 13.557 17.1012 13.3291 17.3291Z" fill="#FFD100"/>
<path d="M4.81718 4.49176C4.99377 4.62963 5.23078 4.65527 5.43127 4.55727C8.32741 3.15476 11.6725 3.15476 14.5686 4.55727C14.6495 4.59659 14.7361 4.61595 14.8227 4.61595C14.9503 4.61595 15.0779 4.57379 15.1827 4.49176C15.3581 4.35389 15.4402 4.1283 15.3935 3.91016L14.6541 0.460852C14.596 0.191953 14.3579 0 14.0833 0H5.91662C5.64203 0 5.40392 0.191953 5.34579 0.460852L4.60641 3.91016C4.55971 4.12836 4.64174 4.35395 4.81718 4.49176Z" fill="#FFD100"/>
<path d="M15.1827 23.5082C15.0073 23.3704 14.768 23.3447 14.5687 23.4427C11.6725 24.8452 8.32746 24.8452 5.43132 23.4427C5.23078 23.3447 4.99382 23.3704 4.81723 23.5082C4.6418 23.6461 4.55977 23.8717 4.60647 24.0898L5.3459 27.5392C5.40403 27.8081 5.64214 28 5.91673 28H14.0834C14.3579 28 14.5961 27.8081 14.6542 27.5392L15.3936 24.0898C15.4402 23.8716 15.3582 23.6461 15.1827 23.5082Z" fill="#FFD100"/>
</svg>
