<svg width="16" height="28" viewBox="0 0 16 28" fill="none" xmlns="http://www.w3.org/2000/svg">
<path d="M12.7549 0H3.29573C1.68757 0 0.321167 1.31125 0.321167 2.91896V25.0844C0.321167 26.6921 1.65866 28 3.26681 28L12.7416 27.9898C14.3495 27.9898 15.665 26.6816 15.665 25.0737L15.6788 2.9174C15.6786 1.30391 14.3695 0 12.7549 0ZM6.65881 1.75004H9.40319C9.64427 1.75004 9.84065 1.94575 9.84065 2.1875C9.84065 2.42924 9.64427 2.62495 9.40319 2.62495H6.65881C6.41707 2.62495 6.22136 2.42924 6.22136 2.1875C6.22136 1.94575 6.41707 1.75004 6.65881 1.75004ZM5.00974 1.88926C5.17187 1.72736 5.46699 1.72513 5.62889 1.88926C5.71007 1.97021 5.7581 2.08386 5.7581 2.19995C5.7581 2.31382 5.71007 2.42724 5.62889 2.50842C5.54816 2.58959 5.43407 2.63741 5.32043 2.63741C5.20456 2.63741 5.09314 2.58959 5.00974 2.50842C4.92901 2.42746 4.88297 2.31382 4.88297 2.19995C4.88275 2.08386 4.92901 1.97021 5.00974 1.88926ZM7.94271 27.1329C7.22081 27.1329 6.63368 26.5453 6.63368 25.8236C6.63368 25.1017 7.22081 24.5144 7.94271 24.5144C8.66461 24.5144 9.25174 25.1017 9.25174 25.8236C9.25174 26.5453 8.66439 27.1329 7.94271 27.1329ZM14.3208 23.6246H1.85237V4.15638H14.3208V23.6246Z" fill="#FFD100"/>
</svg>
