<svg width="15" height="14" viewBox="0 0 15 14" fill="none" xmlns="http://www.w3.org/2000/svg">
<path d="M14.5152 4.90115L10.0185 4.26614L8.00833 0.306328C7.95343 0.197911 7.8631 0.110144 7.75153 0.0567963C7.4717 -0.0774344 7.13166 0.0344245 6.99174 0.306328L4.9816 4.26614L0.484887 4.90115C0.360913 4.91836 0.247566 4.97515 0.160784 5.06119C0.0558699 5.16597 -0.00194268 5.30694 4.9848e-05 5.45312C0.00204238 5.59929 0.0636769 5.73872 0.17141 5.84076L3.42484 8.92291L2.6562 13.2751C2.63818 13.3763 2.64971 13.4804 2.68948 13.5756C2.72926 13.6708 2.79569 13.7533 2.88125 13.8137C2.9668 13.8741 3.06805 13.9099 3.17352 13.9172C3.279 13.9246 3.38446 13.903 3.47797 13.855L7.50004 11.8003L11.5221 13.855C11.6319 13.9118 11.7594 13.9307 11.8816 13.9101C12.1898 13.8585 12.397 13.5745 12.3439 13.2751L11.5752 8.92291L14.8287 5.84076C14.9172 5.75644 14.9757 5.6463 14.9934 5.52584C15.0412 5.22468 14.8251 4.94589 14.5152 4.90115Z" fill="#FFD338"/>
</svg>
