<svg width="28" height="12" viewBox="0 0 28 12" fill="none" xmlns="http://www.w3.org/2000/svg">
<path d="M27.5334 5.05996H27.062C27.0149 2.47882 24.9041 0.393311 22.3123 0.393311H20.5334H19.5799H8.42428H7.4667H5.69198C3.10013 0.393311 0.989406 2.47882 0.942266 5.05996H0.466648C0.208578 5.05996 0 5.26854 0 5.52661C0 5.78419 0.208578 5.99326 0.466648 5.99326H0.937508V6.69375C0.937508 8.58468 1.99309 10.2745 3.69272 11.1037C4.38337 11.4412 5.12072 11.6068 5.85244 11.6068C6.92158 11.6068 7.97995 11.2531 8.86479 10.5624L11.2756 8.68033C12.859 7.44461 13.4601 5.41926 12.8062 3.5199C12.7997 3.49983 12.7908 3.48119 12.7838 3.46155C13.5547 3.09613 14.447 3.10406 15.2123 3.48255C15.2077 3.49513 15.202 3.50683 15.1974 3.5199C14.544 5.41926 15.1451 7.44455 16.7285 8.68076L19.1398 10.5623C20.0246 11.253 21.0825 11.6068 22.1517 11.6068C22.8834 11.6068 23.6207 11.4411 24.3114 11.1042C26.0105 10.2745 27.0666 8.58468 27.0666 6.69375V5.99326H27.5332C27.7913 5.99326 27.9999 5.78419 27.9999 5.52661C28 5.26854 27.7914 5.05996 27.5334 5.05996ZM4.66665 3.65996H3.73335C3.47528 3.65996 3.2667 3.45089 3.2667 3.19331C3.2667 2.93524 3.47528 2.72666 3.73335 2.72666H4.6667C4.92477 2.72666 5.13335 2.93524 5.13335 3.19331C5.13335 3.45089 4.92472 3.65996 4.66665 3.65996ZM15.6081 2.63747C14.5922 2.14096 13.4074 2.1344 12.3849 2.61882C12.0806 2.11017 11.6881 1.67475 11.2299 1.32661H16.7744C16.3105 1.67847 15.9147 2.12089 15.6081 2.63747ZM24.7334 5.61433C24.4753 5.61433 24.2667 5.40526 24.2667 5.14768C24.2667 4.06968 23.3898 3.19326 22.3123 3.19326C22.0542 3.19326 21.8456 2.98419 21.8456 2.72661C21.8456 2.46854 22.0542 2.25996 22.3123 2.25996C23.9046 2.25996 25.2 3.55545 25.2 5.14768C25.2 5.40526 24.9914 5.61433 24.7334 5.61433Z" fill="#FFD100"/>
</svg>
