<svg width="29" height="15" viewBox="0 0 29 15" fill="none" xmlns="http://www.w3.org/2000/svg">
<path d="M4.35862 5.8786H8.22399C8.49068 5.8786 8.70714 5.66214 8.70714 5.39545V2.49067C6.46765 4.14939 5.26796 4.20448 4.72343 4.06389C4.20789 3.93004 4.00207 3.56188 3.95423 3.45991C3.93345 3.33478 3.90638 3.2024 3.87547 3.06854V5.39551C3.87541 5.66219 4.09187 5.8786 4.35862 5.8786Z" fill="#FFD100"/>
<path d="M20.9756 8.72806C21.5124 8.60537 21.97 8.28064 22.2628 7.81437L22.6855 7.03888C21.8294 6.66637 21.6921 6.63931 21.6414 6.63059C21.4814 6.57312 20.905 6.24698 20.1175 5.78115L20.1465 5.75216C20.3354 5.56322 20.3354 5.25741 20.1465 5.06897C19.958 4.88003 19.6522 4.88003 19.4633 5.06897L19.2618 5.26998C18.8651 5.03132 18.4423 4.77471 18.0075 4.50899L18.1007 4.41573C18.2892 4.2273 18.2892 3.92143 18.1007 3.73254C17.9118 3.5441 17.606 3.5441 17.4176 3.73254L17.161 3.98909C16.8431 3.79295 16.5251 3.59676 16.214 3.40351L16.2962 3.32136C16.4851 3.13241 16.4851 2.8266 16.2962 2.63816C16.1077 2.44928 15.8019 2.44928 15.613 2.63816L15.3728 2.8783C14.104 2.08299 13.0681 1.41718 12.7835 1.20412C11.6587 0.358082 9.90775 1.55732 9.68109 1.72062C9.67866 1.72305 9.67628 1.72447 9.67333 1.7269V2.34487L19.4193 8.46421C19.886 8.75705 20.4383 8.8498 20.9756 8.72806Z" fill="#FFD100"/>
<path d="M27.0611 8.88428L26.8383 8.79975C26.0242 8.49099 25.1825 8.17114 24.3853 7.80491C24.0804 7.66432 23.8103 7.54111 23.5702 7.43285L23.0962 8.30255C22.6512 9.01326 21.9796 9.48968 21.1906 9.6699C20.9644 9.7216 20.7364 9.74719 20.5098 9.74719C19.947 9.74719 19.3942 9.58922 18.9057 9.28239L16.6087 7.84064L13.2555 11.1934H11.8891L15.7694 7.3135L15.1249 6.9086L10.8397 11.1934H9.47333L14.2852 6.38151L13.6407 5.97712L8.42397 11.1934H7.05758L12.8014 5.44992L9.67332 3.48584V5.39534C9.67332 6.195 9.02347 6.84484 8.22381 6.84484H4.35845C3.55929 6.84484 2.90894 6.195 2.90894 5.39534V1.68313C2.89926 1.6807 2.89156 1.67492 2.88188 1.67249C2.189 1.50868 1.65076 2.22811 1.57104 2.34215C-0.998945 6.60709 0.219602 10.1767 0.816333 11.4441C0.619688 11.6209 0.493083 11.8751 0.493083 12.1597V13.1255C0.493083 13.6584 0.926971 14.0919 1.45944 14.0919L25.974 14.0913C25.9846 14.0919 26.0392 14.0952 26.1276 14.0952C26.5253 14.0952 27.5945 14.0285 28.3145 13.3584C28.7657 12.938 28.9967 12.3732 29.0001 11.6794V11.6764C29 10.3903 28.2753 9.34665 27.0611 8.88428ZM27.6583 12.6486C27.0872 13.1835 26.0469 13.1279 26.0053 13.126L1.45944 13.1255V12.1597H27.9641C27.9032 12.353 27.8018 12.5148 27.6583 12.6486Z" fill="#FFD100"/>
</svg>
