<svg width="16" height="28" viewBox="0 0 16 28" fill="none" xmlns="http://www.w3.org/2000/svg">
<path d="M14.7394 9.30298L11.4623 7.54557C11.6627 7.46295 11.8042 7.26593 11.8042 7.03573V4.55344C11.8042 4.24878 11.5566 4.00207 11.2521 4.00207H10.8918V3.08493H11.2893C11.5196 3.08493 11.7062 2.89817 11.7062 2.66805V0.416883C11.7062 0.186597 11.5196 0 11.2893 0H6.30947C6.19892 0 6.09286 0.0437727 6.01474 0.12198L5.1658 0.970919C5.08759 1.04913 5.04365 1.1551 5.04365 1.26566V1.42424H2.25229C2.19142 1.42424 2.13339 1.45092 2.09387 1.49736L0.804621 3.00672C0.768603 3.04875 0.75101 3.10327 0.755263 3.1583C0.759682 3.2135 0.785695 3.26461 0.827716 3.30046L1.58853 3.95038C1.6263 3.98265 1.67449 4.00024 1.72385 4.00024C1.72935 4.00024 1.73477 4.00007 1.74027 3.99957C1.7953 3.99532 1.84649 3.96931 1.88243 3.92728L2.80949 2.84164H5.0825C5.14854 2.98488 5.29245 3.08493 5.46053 3.08493H5.85816V4.00207H5.4978C5.19314 4.00207 4.9456 4.24878 4.9456 4.55344V7.03573C4.9456 7.26593 5.08701 7.46295 5.28753 7.54557L2.01033 9.30298C1.699 9.4699 1.50473 9.79457 1.50473 10.148V27.0412C1.50473 27.5708 1.93396 28 2.46356 28H14.2864C14.816 28 15.2453 27.5708 15.2453 27.0412V10.148C15.2452 9.79465 15.0508 9.4699 14.7394 9.30298ZM8.37496 21.3849C6.7527 21.3849 5.43285 20.0651 5.43285 18.4428C5.43285 16.6266 8.04404 14.0776 8.1551 13.97C8.27758 13.8514 8.47218 13.8514 8.59457 13.97C8.7058 14.0776 11.317 16.6266 11.317 18.4428C11.3171 20.0651 9.99722 21.3849 8.37496 21.3849Z" fill="#FFD100"/>
<path d="M8.38372 19.6904C7.66935 19.6904 7.08814 19.1091 7.08814 18.3948C7.08814 18.2376 6.96082 18.1103 6.80365 18.1103C6.64649 18.1103 6.51934 18.2376 6.51934 18.3948C6.51934 19.4228 7.35569 20.2592 8.38372 20.2592C8.54089 20.2592 8.6682 20.1318 8.6682 19.9748C8.66829 19.8177 8.54089 19.6904 8.38372 19.6904Z" fill="#FFD100"/>
</svg>
