<svg width="18" height="18" viewBox="0 0 18 18" fill="none" xmlns="http://www.w3.org/2000/svg">
<path fill-rule="evenodd" clip-rule="evenodd" d="M16.6357 13.9075V16.6359H13.9075V18.0001H18.0001V13.9075H16.6357Z" fill="white"/>
<path fill-rule="evenodd" clip-rule="evenodd" d="M0 13.9075V18.0001H4.09263V16.6359H1.36421V13.9075H0Z" fill="white"/>
<path fill-rule="evenodd" clip-rule="evenodd" d="M13.7368 13.4148H15.4989V4.56641H13.7368V13.4148Z" fill="white"/>
<path fill-rule="evenodd" clip-rule="evenodd" d="M11.88 13.4148H12.7326V4.56641H11.88V13.4148Z" fill="white"/>
<path fill-rule="evenodd" clip-rule="evenodd" d="M10.0042 13.4148H10.8568V4.56641H10.0042V13.4148Z" fill="white"/>
<path fill-rule="evenodd" clip-rule="evenodd" d="M6.85889 13.4148H8.98099V4.56641H6.85889V13.4148Z" fill="white"/>
<path fill-rule="evenodd" clip-rule="evenodd" d="M4.98315 13.4148H5.83579V4.56641H4.98315V13.4148Z" fill="white"/>
<path fill-rule="evenodd" clip-rule="evenodd" d="M2.5011 13.4148H3.97899V4.56641H2.5011V13.4148Z" fill="white"/>
<path fill-rule="evenodd" clip-rule="evenodd" d="M13.9075 0V1.3644H16.6357V4.09263H18.0001V0H13.9075Z" fill="white"/>
<path fill-rule="evenodd" clip-rule="evenodd" d="M0 0V4.09263H1.36421V1.3644H4.09263V0H0Z" fill="white"/>
</svg>
