<svg width="4" height="18" viewBox="0 0 4 18" fill="none" xmlns="http://www.w3.org/2000/svg">
<path d="M3.91304 1.95652C3.91304 3.03708 3.03708 3.91304 1.95652 3.91304C0.875965 3.91304 0 3.03708 0 1.95652C0 0.875965 0.875965 0 1.95652 0C3.03708 0 3.91304 0.875965 3.91304 1.95652Z" fill="#FBFBFB"/>
<path d="M3.91304 9C3.91304 10.0806 3.03708 10.9565 1.95652 10.9565C0.875965 10.9565 0 10.0806 0 9C0 7.91944 0.875965 7.04348 1.95652 7.04348C3.03708 7.04348 3.91304 7.91944 3.91304 9Z" fill="#FBFBFB"/>
<path d="M3.91304 16.0435C3.91304 17.124 3.03708 18 1.95652 18C0.875965 18 0 17.124 0 16.0435C0 14.9629 0.875965 14.087 1.95652 14.087C3.03708 14.087 3.91304 14.9629 3.91304 16.0435Z" fill="#FBFBFB"/>
</svg>
