<svg width="24" height="22" viewBox="0 0 24 22" fill="none" xmlns="http://www.w3.org/2000/svg">
<path fill-rule="evenodd" clip-rule="evenodd" d="M7.78125 14.0627H20.4846C20.7991 14.0627 21.0751 13.8547 21.1602 13.5526L23.9729 3.70862C24.0333 3.4964 23.9919 3.26843 23.8588 3.0921C23.7255 2.91632 23.5182 2.8125 23.2971 2.8125H6.15802L5.6554 0.550781C5.58398 0.228699 5.29834 0 4.96875 0H0.703125C0.314575 0 0 0.314575 0 0.703125C0 1.09186 0.314575 1.40625 0.703125 1.40625H4.40442L6.94354 12.832C6.19647 13.1569 5.67188 13.9005 5.67188 14.7658C5.67188 15.9289 6.61816 16.8752 7.78125 16.8752H9.17554C8.01783 16.8817 7.07812 17.8255 7.07812 18.9845C7.07812 20.1478 8.02441 21.0939 9.18768 21.0939C10.3508 21.0939 11.2971 20.1478 11.2971 18.9845C11.2971 17.8255 10.3573 16.8817 9.19981 16.8752H19.0662C17.9086 16.8817 16.9689 17.8255 16.9689 18.9845C16.9689 20.1478 17.9152 21.0939 19.0783 21.0939C20.2416 21.0939 21.1877 20.1478 21.1877 18.9845C21.1877 17.8255 20.2481 16.8817 19.0904 16.8752H20.4846C20.8733 16.8752 21.1877 16.5608 21.1877 16.1721C21.1877 15.7835 20.8733 15.4689 20.4846 15.4689H7.78125C7.39398 15.4689 7.07812 15.1538 7.07812 14.7658C7.07812 14.3778 7.39398 14.0627 7.78125 14.0627ZM9.5 6.54684C9.22386 6.54684 9 6.7707 9 7.04684C9 7.32299 9.22386 7.54684 9.5 7.54684H19.5C19.7761 7.54684 20 7.32299 20 7.04684C20 6.7707 19.7761 6.54684 19.5 6.54684H9.5ZM10.5 9.54684C10.2239 9.54684 10 9.7707 10 10.0468C10 10.323 10.2239 10.5468 10.5 10.5468H18.5C18.7761 10.5468 19 10.323 19 10.0468C19 9.7707 18.7761 9.54684 18.5 9.54684H10.5Z" fill="#FFD100"/>
</svg>
