<svg width="24" height="16" viewBox="0 0 24 16" fill="none" xmlns="http://www.w3.org/2000/svg">
<path d="M23.4999 5.99999H0.500015C0.200015 5.99999 0 6.2 0 6.5V13.5C0 14.9 1.10001 16 2.49998 16H21.4999C22.8999 16 23.9999 14.8999 23.9999 13.5V6.5C24 6.2 23.7999 5.99999 23.4999 5.99999ZM3.50001 10H7.49999C7.79998 10 8 10.2 8 10.5C8 10.8 7.79998 11 7.49999 11H3.50001C3.20001 11 2.99999 10.8 2.99999 10.5C2.99999 10.2 3.20001 10 3.50001 10ZM10.5 13H3.50001C3.20001 13 2.99999 12.8 2.99999 12.5C2.99999 12.2 3.20001 12 3.50001 12H10.5C10.8 12 11 12.2 11 12.5C11 12.8 10.8 13 10.5 13ZM18.9999 13C18.6 13 18.3 12.9 18 12.7C17.7 12.9 17.4 13 17 13C15.9 13 15 12.1 15 11C15 9.89998 15.9 8.99998 17 8.99998C17.4 8.99998 17.7 9.09997 18 9.29998C18.3 9.09997 18.6 8.99998 18.9999 8.99998C20.1 8.99998 21 9.89998 21 11C21 12.1 20.1 13 18.9999 13Z" fill="#D2DAEA"/>
<path d="M21.5 0H2.49998C1.10001 0 0 1.10001 0 2.50003V3.50001C0 3.80001 0.200015 4.00002 0.500015 4.00002H23.5C23.8 4.00002 24 3.80001 24 3.50001V2.50003C24 1.10001 22.8999 0 21.5 0Z" fill="#D2DAEA"/>
</svg>
