<svg width="18" height="20" viewBox="0 0 18 20" fill="none" xmlns="http://www.w3.org/2000/svg">
<path fill-rule="evenodd" clip-rule="evenodd" d="M11.908 19.9999H11.778C10.188 19.5399 9.148 18.9499 8.058 17.8799C6.658 16.4999 5.888 14.6399 5.888 12.6599C5.888 11.0399 7.268 9.71992 8.968 9.71992C10.668 9.71992 12.048 11.0399 12.048 12.6599C12.048 13.7299 12.998 14.5999 14.128 14.5999C15.278 14.5999 16.208 13.7299 16.208 12.6599C16.208 8.88992 12.958 5.82992 8.958 5.82992C6.118 5.82992 3.498 7.40992 2.348 9.85991C1.958 10.6699 1.758 11.6199 1.758 12.6599C1.758 13.4399 1.828 14.6699 2.428 16.2699C2.528 16.5299 2.398 16.8199 2.138 16.9099C1.878 16.9999 1.588 16.8699 1.498 16.6199C0.997998 15.3099 0.767998 13.9999 0.767998 12.6599C0.767998 11.4599 0.997998 10.3699 1.448 9.41992C2.778 6.62992 5.728 4.81992 8.958 4.81992C13.498 4.81992 17.208 8.32992 17.208 12.6499C17.208 14.2699 15.828 15.5899 14.128 15.5899C12.428 15.5899 11.048 14.2699 11.048 12.6499C11.048 11.5799 10.118 10.7099 8.968 10.7099C7.818 10.7099 6.888 11.5799 6.888 12.6499C6.888 14.3599 7.548 15.9599 8.758 17.1599C9.708 18.0999 10.618 18.6199 12.028 18.9999C12.298 19.0799 12.448 19.3599 12.378 19.6199C12.328 19.8499 12.118 19.9999 11.908 19.9999ZM13.9177 17.9401C12.7277 17.9401 11.6777 17.6401 10.8177 17.0501C9.32773 16.0401 8.43773 14.4001 8.43773 12.6601C8.43773 12.5271 8.49073 12.4001 8.58373 12.3061C8.67773 12.2131 8.80473 12.1601 8.93773 12.1601C9.07073 12.1601 9.19773 12.2131 9.29173 12.3061C9.38473 12.4001 9.43773 12.5271 9.43773 12.6601C9.43773 14.0701 10.1577 15.4001 11.3777 16.2201C12.0877 16.7001 12.9177 16.9301 13.9177 16.9301C14.1577 16.9301 14.5567 16.9001 14.9577 16.8301C15.2277 16.7801 15.4977 16.9601 15.5377 17.2401C15.5877 17.5001 15.4077 17.7701 15.1277 17.8201C14.5567 17.9301 14.0567 17.9401 13.9177 17.9401ZM6.74752 19.7899C6.61752 19.7899 6.49752 19.7399 6.39752 19.6399C5.52752 18.7699 5.05752 18.2099 4.38752 16.9999C3.69752 15.7699 3.33752 14.2699 3.33752 12.6599C3.33752 9.68993 5.87752 7.26993 8.99752 7.26993C12.1175 7.26993 14.6575 9.68993 14.6575 12.6599C14.6575 12.7929 14.6045 12.9199 14.5115 13.0139C14.4175 13.1069 14.2905 13.1599 14.1575 13.1599C14.0245 13.1599 13.8975 13.1069 13.8035 13.0139C13.7105 12.9199 13.6575 12.7929 13.6575 12.6599C13.6575 10.2399 11.5675 8.26993 8.99752 8.26993C6.42752 8.26993 4.33752 10.2399 4.33752 12.6599C4.33752 14.0999 4.65752 15.4299 5.26752 16.4999C5.90752 17.6599 6.34752 18.1499 7.11752 18.9299C7.30752 19.1299 7.30752 19.4399 7.11752 19.6399C6.99752 19.7399 6.87752 19.7899 6.74752 19.7899ZM0.497715 7.71995C0.397715 7.71995 0.297715 7.68995 0.207715 7.62995C-0.00228505 7.46995 -0.0722851 7.15995 0.0877149 6.92995C1.07771 5.52995 2.33771 4.42995 3.83771 3.65995C6.99771 2.03995 10.9977 2.02995 14.1477 3.64995C15.6477 4.41995 16.9077 5.49995 17.8977 6.89995C18.0567 7.11995 17.9977 7.43995 17.7777 7.59995C17.5477 7.75995 17.2377 7.70995 17.0777 7.49995C16.1777 6.21995 15.0377 5.22995 13.6877 4.53995C10.8177 3.06995 7.14772 3.06995 4.28771 4.54995C2.92771 5.24995 1.78771 6.24995 0.887715 7.49995C0.807715 7.64995 0.657715 7.71995 0.497715 7.71995ZM14.8064 2.47C14.7274 2.47 14.6474 2.45 14.5774 2.41C12.6574 1.42 10.9974 1 8.99743 1C7.02743 1 5.14743 1.47 3.43743 2.41C3.19743 2.54 2.89743 2.45 2.75743 2.21C2.62743 1.97 2.71743 1.66 2.95743 1.53C4.81743 0.5 6.85743 0 8.99743 0C11.1364 0 12.9974 0.47 15.0374 1.5C15.2874 1.65 15.3774 1.95 15.2474 2.19C15.1574 2.37 14.9974 2.47 14.8064 2.47Z" fill="#333333"/>
</svg>
