<svg width="24" height="24" viewBox="0 0 24 24" fill="none" xmlns="http://www.w3.org/2000/svg">
<path d="M21.3897 3.99998H20.4204C20.2754 3.99998 20.1377 4.06298 20.0425 4.17234C19.9477 4.2817 19.9048 4.42725 19.9253 4.57078C19.9761 4.92623 20 5.22164 20 5.49998C20 9.08399 17.084 12 13.5 12C9.91602 12 6.99998 9.08399 6.99998 5.49998C6.99998 5.22164 7.02388 4.92623 7.0747 4.57078C7.09523 4.4272 7.05224 4.2817 6.95751 4.17234C6.86231 4.06298 6.72459 3.99998 6.57956 3.99998H5.41902L5.01285 2.70164C4.88226 2.28417 4.49554 1.99997 4.0581 1.99997H1.49999C1.22385 1.99997 0.999977 2.2238 0.999977 2.49998V3.49997C0.999977 3.77611 1.22385 3.99998 1.49999 3.99998H3.32324L6.48407 14.1019L5.00001 15.5859C4.42579 16.1597 4.25587 17.0151 4.56641 17.7651C4.87696 18.5151 5.60254 19 6.41409 19H20.5C20.7762 19 21 18.7761 21 18.5V17.5C21 17.2238 20.7762 17 20.5 17H6.41409L8.41405 15H17.5478C18.3188 15 19.0293 14.5493 19.3579 13.8516L22.8472 6.43701C22.9473 6.22364 23 5.98682 23 5.75193V5.61032C23 4.72219 22.2778 3.99998 21.3897 3.99998Z" fill="#8B929F"/>
<path d="M13.5 11C16.5327 11 19 8.53275 19 5.50003C19 2.46731 16.5327 0 13.5 0C10.4673 0 8.00004 2.46727 8.00004 5.49998C8.00004 8.5327 10.4673 11 13.5 11ZM11.5 5.00002H13V3.50002C13 3.22364 13.2236 3 13.5 3C13.7764 3 14 3.22364 14 3.50002V5.00002H15.5C15.7764 5.00002 16 5.22366 16 5.50003C16 5.77641 15.7764 6.00005 15.5 6.00005H14V7.50005C14 7.77642 13.7764 8.00006 13.5 8.00006C13.2236 8.00006 13 7.77642 13 7.50005V6.00005H11.5C11.2236 6.00005 11 5.77641 11 5.50003C11 5.22366 11.2237 5.00002 11.5 5.00002Z" fill="#8B929F"/>
<path d="M6.99997 24C8.10455 24 8.99999 23.1046 8.99999 22C8.99999 20.8954 8.10455 20 6.99997 20C5.89539 20 4.99995 20.8954 4.99995 22C4.99995 23.1046 5.89539 24 6.99997 24Z" fill="#8B929F"/>
<path d="M18.9999 24C20.1045 24 21 23.1046 21 22C21 20.8954 20.1045 20 18.9999 20C17.8954 20 16.9999 20.8954 16.9999 22C16.9999 23.1046 17.8954 24 18.9999 24Z" fill="#8B929F"/>
</svg>
