<svg width="34" height="34" viewBox="0 0 34 34" fill="none" xmlns="http://www.w3.org/2000/svg">
<g filter="url(#filter0_d_571_851)">
<circle cx="17" cy="15" r="9" fill="white"/>
<circle cx="17" cy="15" r="8.5" stroke="#D2DAEA"/>
</g>
<path d="M19.9463 18.5268L13.4645 12.045C13.3018 11.8824 13.3018 11.6184 13.4645 11.4558C13.6271 11.2931 13.8911 11.2931 14.0537 11.4558L20.5355 17.9376C20.6982 18.1002 20.6982 18.3642 20.5355 18.5268C20.3729 18.6895 20.1089 18.6895 19.9463 18.5268Z" fill="#8B929F"/>
<path d="M20.5355 12.0452L14.0537 18.527C13.891 18.6897 13.627 18.6897 13.4644 18.527C13.3018 18.3644 13.3018 18.1004 13.4644 17.9378L19.9462 11.456C20.1089 11.2933 20.3728 11.2933 20.5355 11.456C20.6981 11.6186 20.6981 11.8826 20.5355 12.0452Z" fill="#8B929F"/>
<defs>
<filter id="filter0_d_571_851" x="0" y="0" width="34" height="34" filterUnits="userSpaceOnUse" color-interpolation-filters="sRGB">
<feFlood flood-opacity="0" result="BackgroundImageFix"/>
<feColorMatrix in="SourceAlpha" type="matrix" values="0 0 0 0 0 0 0 0 0 0 0 0 0 0 0 0 0 0 127 0" result="hardAlpha"/>
<feOffset dy="2"/>
<feGaussianBlur stdDeviation="4"/>
<feColorMatrix type="matrix" values="0 0 0 0 0.165278 0 0 0 0 0.182703 0 0 0 0 0.233333 0 0 0 0.06 0"/>
<feBlend mode="normal" in2="BackgroundImageFix" result="effect1_dropShadow_571_851"/>
<feBlend mode="normal" in="SourceGraphic" in2="effect1_dropShadow_571_851" result="shape"/>
</filter>
</defs>
</svg>
