<svg width="28" height="24" viewBox="0 0 28 24" fill="none" xmlns="http://www.w3.org/2000/svg">
<path d="M25.2 4.29998L23.8 0.0999756H16.8L15.4 4.29998H9.8V2.89998H8.4V1.49998H5.6V2.89998H4.2V4.29998H2.8C1.26 4.29998 0 5.55998 0 7.09998V21.1C0 22.64 1.26 23.9 2.8 23.9H25.2C26.74 23.9 28 22.64 28 21.1V7.09998C28 5.55998 26.74 4.29998 25.2 4.29998ZM4.2 9.89998C3.5 9.89998 2.8 9.33998 2.8 8.49998C2.8 7.79998 3.5 7.09998 4.2 7.09998C4.9 7.09998 5.6 7.79998 5.6 8.49998C5.6 9.33998 4.9 9.89998 4.2 9.89998ZM18.2 21.1C14.28 21.1 11.2 18.02 11.2 14.1C11.2 10.18 14.28 7.09998 18.2 7.09998C22.12 7.09998 25.2 10.18 25.2 14.1C25.2 18.02 22.12 21.1 18.2 21.1Z" fill="#FFD100"/>
<path d="M21.98 12.28C21.7 12.56 21.42 12.7 21 12.7C20.16 12.7 19.6 12.14 19.6 11.3C19.6 10.88 19.74 10.6 20.02 10.32C19.46 10.04 18.9 9.89997 18.2 9.89997C15.82 9.89997 14 11.72 14 14.1C14 16.48 15.82 18.3 18.2 18.3C20.44 18.3 22.4 16.48 22.4 14.1C22.4 13.4 22.26 12.84 21.98 12.28Z" fill="#FFD100"/>
</svg>
