<svg width="10" height="15" viewBox="0 0 10 15" fill="none" xmlns="http://www.w3.org/2000/svg">
<path d="M10.0001 5.00116C10.0001 2.33196 7.90514 0.149129 5.2711 0.00849096C2.26787 -0.152657 -0.216743 2.38763 0.0147249 5.39084C0.0733244 6.15557 0.304792 6.87048 0.668109 7.50042L4.43605 14.0255C4.6851 14.4591 5.31212 14.4591 5.56116 14.0255L9.30567 7.54144L9.3086 7.53558L9.32911 7.50042C9.75689 6.765 10.0001 5.91238 10.0001 5.00116ZM5.00154 7.46233C3.53948 7.46233 2.35284 6.2757 2.35284 4.81657C2.35284 3.35452 3.53948 2.16788 5.00154 2.16788C6.4636 2.16788 7.64731 3.35452 7.64731 4.81657C7.64731 6.27863 6.4636 7.46233 5.00154 7.46233Z" fill="#FFD100"/>
</svg>
