<svg width="10" height="15" viewBox="0 0 10 15" fill="none" xmlns="http://www.w3.org/2000/svg">
<path d="M9.96149 5.78798C9.90718 5.68787 9.80159 5.62532 9.68745 5.62532H6.24996V0.313009C6.24996 0.174464 6.15841 0.0523836 6.02534 0.0130379C5.89474 -0.0269523 5.74945 0.0273934 5.67439 0.143966L0.0493951 8.89365C-0.0122456 8.98978 -0.0165229 9.11215 0.0384087 9.21255C0.0927251 9.31266 0.198311 9.37468 0.312452 9.37468H3.74994V14.6875C3.74994 14.8261 3.84149 14.9481 3.97456 14.9875C4.00324 14.996 4.03315 15 4.06245 15C4.16684 15 4.26691 14.9475 4.32551 14.8566L9.95051 6.10688C10.0121 6.01075 10.0164 5.88838 9.96149 5.78798Z" fill="#FFD100"/>
</svg>
