<svg width="28" height="28" viewBox="0 0 28 28" fill="none" xmlns="http://www.w3.org/2000/svg">
<path d="M2.53663 15.7911C2.58363 14.2451 2.22313 13.6351 1.99813 11.2085C1.98403 11.1921 1.97132 11.1746 1.96013 11.156C1.76766 10.6544 1.23291 10.3735 0.710631 10.4995C0.200631 10.6685 -0.0393691 11.322 0.00463092 12.4406C0.0716309 14.0556 1.09513 15.1176 2.53663 15.7911Z" fill="#FFD100"/>
<path d="M2.94161 10.3351C4.10011 8.27956 6.52911 5.18156 10.9241 4.50556C13.1531 4.16256 16.1361 3.20556 16.4811 0.983056C16.0986 0.798901 15.704 0.640872 15.3001 0.510056C14.0061 1.88806 11.8351 2.51606 9.96661 2.80356C6.98472 3.29876 4.38943 5.12216 2.91261 7.75956C2.89311 8.59556 2.89111 9.22406 2.94161 10.3351Z" fill="#FFD100"/>
<path d="M22.5911 19.796L25.4011 18.634C24.9386 17.7679 24.2302 17.058 23.3651 16.5935L22.2001 19.406C22.3482 19.517 22.4798 19.6483 22.5911 19.796Z" fill="#FFD100"/>
<path d="M10.3667 26.3141C9.33778 25.9869 8.36946 25.4933 7.50015 24.8531V27.4896C7.50015 27.7657 7.72401 27.9896 8.00015 27.9896H15.0002C15.2763 27.9896 15.5002 27.7657 15.5002 27.4896V26.7996C15.0973 26.4178 14.7353 25.995 14.4202 25.5381C13.8493 25.8478 13.2528 26.1076 12.6372 26.3146C11.9007 26.563 11.103 26.5628 10.3667 26.3141Z" fill="#FFD100"/>
<path d="M19.7381 13.109C19.8741 12.359 19.8956 12.155 19.9626 11.577C18.0199 8.33624 14.7486 6.11535 11.0196 5.50555C5.75363 6.34955 3.59163 11.0565 3.12313 12.2555C3.35886 13.3865 3.49836 14.5355 3.54013 15.69C3.49182 16.2707 3.51347 16.855 3.60463 17.4305C4.07413 20.3855 6.02013 22.722 8.54213 24.3545C9.21106 24.7812 9.9315 25.121 10.6861 25.366C11.2153 25.5435 11.7879 25.5435 12.3171 25.366C12.8644 25.1825 13.3952 24.9534 13.9041 24.681C12.7163 22.4033 12.6977 19.693 13.8541 17.3992C15.0106 15.1054 17.2006 13.5086 19.7381 13.109Z" fill="#FFD100"/>
<path d="M9.81466 1.81555C11.3147 1.58455 12.9572 1.14855 14.1472 0.202046C12.9237 -0.0539545 12.8002 0.00954554 10.1652 0.00954554C9.90966 0.0215455 3.53966 0.378545 2.99666 5.88105C4.65407 3.69071 7.09973 2.23238 9.81466 1.81555Z" fill="#FFD100"/>
<path d="M22.2876 10.4995C21.765 10.3725 21.2294 10.654 21.0376 11.1565C21.026 11.1749 21.0133 11.1926 20.9996 11.2095C20.9376 11.878 20.9336 11.9961 20.7681 13.0096C21.4749 12.9891 22.1811 13.0635 22.8681 13.2306C23.0926 12.3831 23.1196 10.775 22.2876 10.4995Z" fill="#FFD100"/>
<path d="M15.3742 4.04055C14.7097 4.45594 13.9923 4.7797 13.2412 5.00305C15.9833 5.88004 18.3764 7.60444 20.0762 9.92805C20.1107 9.01805 20.1012 8.33855 20.0887 7.78305C18.8506 6.16507 17.2308 4.87923 15.3742 4.04055Z" fill="#FFD100"/>
<path d="M20.0246 6.16404C19.9676 4.27239 18.9819 2.53041 17.3896 1.50754C17.1867 2.21396 16.795 2.85168 16.2566 3.35204C17.6697 4.05817 18.9456 5.01038 20.0246 6.16404Z" fill="#FFD100"/>
<path d="M22.2001 22.5921L23.3651 25.3996C24.2289 24.9364 24.9367 24.2287 25.4001 23.3651L22.5896 22.1996C22.4788 22.348 22.3477 22.4801 22.2001 22.5921Z" fill="#FFD100"/>
<path d="M20.7221 22.9736L19.5581 25.7855C20.4986 26.0688 21.5019 26.0674 22.4416 25.7815L21.2736 22.9736C21.0916 23.0101 20.9042 23.0101 20.7221 22.9736Z" fill="#FFD100"/>
<path d="M21.2776 19.022L22.4416 16.2105C21.5018 15.9265 20.499 15.9265 19.5591 16.2105L20.7211 19.02C20.9058 18.9947 21.0931 18.9954 21.2776 19.022Z" fill="#FFD100"/>
<path d="M19.4061 22.1996C17.6061 22.9446 18.3951 22.6201 16.5976 23.3671C17.0606 24.2325 17.7691 24.9417 18.6341 25.4056L19.8001 22.5911C19.6511 22.4796 19.5185 22.3478 19.4061 22.1996Z" fill="#FFD100"/>
<path d="M14.5312 18.319C13.3508 21.1666 14.1721 24.4512 16.5538 26.4081C18.9356 28.365 22.3171 28.5335 24.8817 26.8231C27.4462 25.1127 28.59 21.926 27.6985 18.9752C26.8071 16.0244 24.0902 14.004 21.0077 13.9995C18.1741 13.9976 15.6182 15.7023 14.5312 18.319ZM21.8247 15.0615C22.3295 15.1311 22.8239 15.2624 23.2967 15.4525C26.3451 16.7318 27.7938 20.2281 26.5437 23.2885V23.2955L26.5377 23.3055C25.6052 25.5363 23.425 26.9894 21.0072 26.9916C18.5895 26.9938 16.4066 25.5446 15.4702 23.3155C13.6432 19.233 17.1262 14.409 21.8247 15.0615Z" fill="#FFD100"/>
<path d="M22.9736 21.2771L25.7851 22.4411C26.0697 21.5013 26.0697 20.4983 25.7851 19.5585L22.9756 20.7201C23.0015 20.9049 23.0008 21.0924 22.9736 21.2771Z" fill="#FFD100"/>
<path d="M19.0241 21.273C18.9987 21.0906 18.9987 20.9055 19.0241 20.723L16.2101 19.5581C15.9269 20.4984 15.9282 21.5015 16.2141 22.441C16.4791 22.331 18.3211 21.564 19.0241 21.273Z" fill="#FFD100"/>
<path d="M21.9241 21.381C22.1296 20.8698 21.8885 20.2881 21.3816 20.0721C20.8714 19.862 20.2874 20.1049 20.0767 20.6148C19.866 21.1248 20.1081 21.7091 20.6178 21.9204C21.1275 22.1318 21.7121 21.8904 21.9241 21.381Z" fill="#FFD100"/>
<path d="M19.7971 19.4046L18.6351 16.5945C17.7677 17.0576 17.057 17.7673 16.5926 18.6341L19.4041 19.7996C19.5157 19.6499 19.648 19.5169 19.7971 19.4046Z" fill="#FFD100"/>
</svg>
