<svg width="20" height="15" viewBox="0 0 20 15" fill="none" xmlns="http://www.w3.org/2000/svg">
<path fill-rule="evenodd" clip-rule="evenodd" d="M19.2809 6.45696H2.57375L8.33089 1.27125C8.63875 1.02411 8.68732 0.574821 8.44089 0.266964C8.19375 -0.040893 7.74375 -0.0894644 7.43589 0.157678C7.41446 0.174821 7.39304 0.194107 7.37375 0.214107L0.230893 6.64268C0.178036 6.69196 0.134464 6.74982 0.102321 6.81411L0.0594643 6.87125C-0.0198214 7.05339 -0.0198214 7.26054 0.0594643 7.44268L0.102321 7.49982C0.134464 7.56411 0.178036 7.62196 0.230893 7.67125L7.37375 14.0998C7.50018 14.2291 7.67161 14.3055 7.85232 14.3141C8.05375 14.3134 8.24589 14.2284 8.38089 14.0784C8.64446 13.7863 8.62232 13.3363 8.33089 13.0712L2.57375 7.88554H19.2809C19.6759 7.88554 19.9952 7.56554 19.9952 7.17125C19.9952 6.77696 19.6759 6.45696 19.2809 6.45696Z" fill="#8B929F"/>
</svg>
