<svg width="28" height="23" viewBox="0 0 28 23" fill="none" xmlns="http://www.w3.org/2000/svg">
<path d="M2.90572 12.7028C1.30353 12.7028 0 14.0063 0 15.6086V19.4722C0 21.0744 1.30353 22.3779 2.90572 22.3779H3.25878V12.7028H2.90572Z" fill="#FFD100"/>
<path d="M4.92223 12.7028V22.3779H7.06894V12.7028H4.92223Z" fill="#FFD100"/>
<path d="M25.0943 12.7028H24.7412V22.3779H25.0943C26.6965 22.3779 28 21.0744 28 19.4722V15.6086C28.0001 14.0063 26.6965 12.7028 25.0943 12.7028Z" fill="#FFD100"/>
<path d="M20.9311 12.7028V22.3779H23.0778V12.7028H20.9311Z" fill="#FFD100"/>
<path d="M14 0C8.07726 0 3.25878 4.81853 3.25878 10.7412L3.25878 12.7028H4.92223L4.92222 10.7412C4.92222 5.73569 8.99448 1.66343 14 1.66343C19.0056 1.66343 23.0779 5.73569 23.0779 10.7412L23.0778 12.7028H24.7412L24.7413 10.7412C24.7413 4.81847 19.9228 0 14 0Z" fill="#FFD100"/>
</svg>
