<svg width="22" height="22" viewBox="0 0 22 22" fill="none" xmlns="http://www.w3.org/2000/svg">
<path d="M9.62576 0.000732422C4.31826 0.000732422 0.000760782 3.51661 0.000760782 7.83823C0.000760782 10.0272 1.10076 12.0801 3.04226 13.5569C2.40014 14.5592 1.56964 15.574 0.521886 15.8325C0.190511 15.915 -0.0308642 16.2285 0.00351078 16.5681C0.0378858 16.9091 0.317011 17.1717 0.659386 17.1869C0.674511 17.1869 0.733636 17.1896 0.832636 17.1896C1.54351 17.1896 4.28801 17.0755 7.40238 15.4599C8.11601 15.6042 8.86263 15.6757 9.62576 15.6757C14.9319 15.6757 19.2508 12.1599 19.2508 7.83823C19.2508 3.51661 14.9319 0.000732422 9.62576 0.000732422Z" fill="#FFD100"/>
<path d="M21.4783 20.5941C20.6024 20.3782 19.9397 19.7375 19.4763 19.1022C21.0892 17.8386 22.0008 16.1006 22.0008 14.2485C22.0008 12.6975 21.349 11.2716 20.2669 10.1317C19.0445 14.1041 14.7449 17.0507 9.62579 17.0507C8.94242 17.0507 8.26729 16.9985 7.61142 16.8954C7.22092 17.0837 6.83867 17.2501 6.46329 17.3986C7.85067 19.5299 10.5952 20.986 13.7508 20.986C14.3957 20.986 15.0213 20.9269 15.6153 20.8113C17.5884 21.8165 19.3883 22.0021 20.447 22.0007C21.0273 22.0007 21.3848 21.9457 21.4247 21.9389C21.7464 21.8866 21.987 21.6144 22.0008 21.2885C22.0132 20.9626 21.7959 20.6711 21.4783 20.5941Z" fill="#FFD100"/>
</svg>
