<svg width="20" height="20" viewBox="0 0 20 20" fill="none" xmlns="http://www.w3.org/2000/svg">
<path d="M7.4615 0H2.49694L0.293189 4.46616H6.65525L7.4615 0Z" fill="#D2DAEA"/>
<path d="M19.7019 4.46616L17.4982 0H12.5336L13.3399 4.46616H19.7019Z" fill="#D2DAEA"/>
<path d="M11.5417 0H8.45346L7.6472 4.46616H12.3479L11.5417 0Z" fill="#D2DAEA"/>
<path d="M13.418 11.6784C13.418 11.8787 13.2959 12.0595 13.1102 12.1328C13.0516 12.1573 12.988 12.167 12.9294 12.167C12.7975 12.167 12.6704 12.1133 12.5727 12.0156L11.9619 11.3706L11.3267 12.0204C11.2338 12.1133 11.1068 12.167 10.9748 12.167C10.8429 12.167 10.7159 12.1133 10.6279 12.0204L9.99756 11.3706L9.36721 12.0204C9.27437 12.1133 9.14732 12.167 9.02028 12.167C8.88835 12.167 8.7613 12.1133 8.67334 12.0204L8.03811 11.3706L7.42731 12.0156C7.2905 12.1622 7.07549 12.2061 6.88981 12.1328C6.70413 12.0595 6.58197 11.8787 6.58197 11.6784V5.44336H0V19.0569H20V5.44336H13.418V11.6784Z" fill="#D2DAEA"/>
<path d="M8.02344 10.1783C8.15537 10.1783 8.28242 10.2321 8.37526 10.3249L9.01538 10.9797L9.64572 10.3298C9.73857 10.237 9.86561 10.1832 9.99755 10.1832C10.1295 10.1832 10.2565 10.237 10.3494 10.3298L10.9797 10.9797L11.6198 10.3249C11.7127 10.2321 11.8397 10.1783 11.9668 10.1783H11.9716C12.1036 10.1783 12.2306 10.2321 12.3235 10.3298L12.4407 10.452V5.4434H7.55435V10.452L7.67162 10.3298C7.76446 10.237 7.89151 10.1832 8.02344 10.1783Z" fill="#D2DAEA"/>
</svg>
