<svg width="22" height="24" viewBox="0 0 22 24" fill="none" xmlns="http://www.w3.org/2000/svg">
<path d="M20.3897 3.99998H19.4204C19.2754 3.99998 19.1377 4.06298 19.0425 4.17234C18.9477 4.2817 18.9048 4.42725 18.9253 4.57078C18.976 4.92623 19 5.22164 19 5.49998C19 9.08399 16.084 12 12.5 12C8.91602 12 5.99997 9.08399 5.99997 5.49998C5.99997 5.22164 6.02388 4.92623 6.07469 4.57078C6.09522 4.4272 6.05224 4.2817 5.9575 4.17234C5.8623 4.06298 5.72458 3.99998 5.57955 3.99998H4.41902L4.01284 2.70164C3.88225 2.28417 3.49553 1.99997 3.05809 1.99997H0.499985C0.223844 1.99997 -3.05176e-05 2.2238 -3.05176e-05 2.49998V3.49997C-3.05176e-05 3.77611 0.223844 3.99998 0.499985 3.99998H2.32324L5.48406 14.1019L4 15.5859C3.42578 16.1597 3.25586 17.0151 3.56641 17.7651C3.87695 18.5151 4.60253 19 5.41408 19H19.5C19.7762 19 20 18.7761 20 18.5V17.5C20 17.2238 19.7762 17 19.5 17H5.41408L7.41405 15H16.5478C17.3188 15 18.0293 14.5493 18.3579 13.8516L21.8472 6.43701C21.9473 6.22364 22 5.98682 22 5.75193V5.61032C22 4.72219 21.2778 3.99998 20.3897 3.99998Z" fill="#333333"/>
<path d="M12.5 11C15.5327 11 18 8.53275 18 5.50003C18 2.46731 15.5327 0 12.5 0C9.46729 0 7.00003 2.46727 7.00003 5.49998C7.00003 8.5327 9.46729 11 12.5 11ZM10.5 5.00002H12V3.50002C12 3.22364 12.2236 3 12.5 3C12.7764 3 13 3.22364 13 3.50002V5.00002H14.5C14.7764 5.00002 15 5.22366 15 5.50003C15 5.77641 14.7764 6.00005 14.5 6.00005H13V7.50005C13 7.77642 12.7764 8.00006 12.5 8.00006C12.2236 8.00006 12 7.77642 12 7.50005V6.00005H10.5C10.2236 6.00005 9.99998 5.77641 9.99998 5.50003C10 5.22366 10.2237 5.00002 10.5 5.00002Z" fill="#333333"/>
<path d="M5.99996 24C7.10454 24 7.99998 23.1046 7.99998 22C7.99998 20.8954 7.10454 20 5.99996 20C4.89538 20 3.99995 20.8954 3.99995 22C3.99995 23.1046 4.89538 24 5.99996 24Z" fill="#333333"/>
<path d="M17.9999 24C19.1045 24 20 23.1046 20 22C20 20.8954 19.1045 20 17.9999 20C16.8954 20 15.9999 20.8954 15.9999 22C15.9999 23.1046 16.8954 24 17.9999 24Z" fill="#333333"/>
</svg>
