<svg width="17" height="28" viewBox="0 0 17 28" fill="none" xmlns="http://www.w3.org/2000/svg">
<path d="M16.9173 28L14.5197 6.42208C14.47 6.41456 14.4205 6.40581 14.3713 6.39583C13.6929 6.2559 13.0834 5.8866 12.6453 5.35007C12.2072 4.81353 11.9673 4.14249 11.9658 3.44981V2.20621C10.6699 2.32877 9.21546 2.44777 8.45867 2.44777C7.70187 2.44777 6.2474 2.32877 4.9515 2.20621V3.44981C4.95005 4.14249 4.7101 4.81353 4.27201 5.35007C3.83391 5.8866 3.22441 6.2559 2.54602 6.39583C2.49683 6.40581 2.44736 6.41456 2.39759 6.42208L0 28H6.00365L7.96052 9.40962C7.97349 9.28651 8.03157 9.17255 8.12358 9.08973C8.21559 9.0069 8.335 8.96107 8.45879 8.96107C8.58259 8.96107 8.702 9.0069 8.794 9.08973C8.88601 9.17255 8.94409 9.28651 8.95706 9.40962L10.9137 28H16.9173Z" fill="#FFD100"/>
<path d="M3.94941 3.44983V2.10815C3.52981 2.06575 3.16218 2.02711 2.88912 1.99786L2.51417 5.37213C2.92822 5.24852 3.29143 4.99478 3.54995 4.64853C3.80847 4.30227 3.94855 3.88194 3.94941 3.44983Z" fill="#FFD100"/>
<path d="M13.9699 0.996098V0.000313207C12.7103 0.1344 9.6784 0.443657 8.45865 0.443657C7.23891 0.443657 4.20696 0.1344 2.94739 0V0.996098C4.11734 1.12135 7.26628 1.44571 8.45865 1.44571C9.65103 1.44571 12.8 1.12123 13.9699 0.996098Z" fill="#FFD100"/>
<path d="M14.4031 5.37213L14.0282 1.99786C13.7551 2.02711 13.3876 2.06575 12.9679 2.10815V3.44983C12.9688 3.88194 13.1088 4.30227 13.3674 4.64853C13.6259 4.99478 13.9891 5.24852 14.4031 5.37213Z" fill="#FFD100"/>
</svg>
