<svg width="28" height="17" viewBox="0 0 28 17" fill="none" xmlns="http://www.w3.org/2000/svg">
<path fill-rule="evenodd" clip-rule="evenodd" d="M19.9609 0.164917C22.3885 0.728241 23.3172 2.14777 24.4814 4.10156H19.9609V0.164917ZM5.7738 4.26562C6.24911 4.26562 6.59412 4.49506 6.59412 5.03125C6.59412 5.48349 6.22818 5.85028 5.77615 5.85156H0.820312C0.367218 5.85156 0 6.21899 0 6.67188C0 7.12497 0.367218 7.49219 0.820312 7.49219H8.20312C8.66049 7.49219 9.02664 7.85919 9.02664 8.3125C9.02664 8.76559 8.65942 9.13281 8.20633 9.13281H0.820312C0.367218 9.13281 0 9.50003 0 9.95312C0 10.4062 0.367218 10.7734 0.820312 10.7734H2.625V13.2344C2.625 13.6875 2.99222 14.0547 3.44531 14.0547H5.09427C5.38821 15.5026 6.6676 16.5703 8.17578 16.5703C9.68396 16.5703 10.9633 15.5026 11.2573 14.0547H19.5865C19.8804 15.5026 21.1598 16.5703 22.668 16.5703C24.1761 16.5703 25.4555 15.5026 25.7495 14.0547H27.1797C27.6328 14.0547 28 13.6875 28 13.2344V8.3125C28 5.90561 25.4613 5.74582 25.459 5.74219H19.1406C18.6875 5.74219 18.3203 5.37497 18.3203 4.92188V0H3.44531C2.99222 0 2.625 0.367218 2.625 0.820312V2.625H1.64062C1.18753 2.625 0.820312 2.99222 0.820312 3.44531C0.820312 3.89841 1.18753 4.26562 1.64062 4.26562H5.7738ZM23.7314 12.3624C24.3186 12.9496 24.3186 13.9022 23.7314 14.4894C22.7867 15.4341 21.1641 14.762 21.1641 13.4258C21.1641 12.0898 22.7867 11.4177 23.7314 12.3624ZM9.2392 12.3624C9.82645 12.9496 9.82645 13.9022 9.2392 14.4894C8.29456 15.4341 6.67188 14.762 6.67188 13.4258C6.67188 12.0898 8.29456 11.4177 9.2392 12.3624Z" fill="#D2DAEA"/>
</svg>
