<svg width="20" height="20" viewBox="0 0 20 20" fill="none" xmlns="http://www.w3.org/2000/svg">
<path d="M0.45455 7.27271H6.81818C7.06943 7.27271 7.27274 7.0694 7.27274 6.81815V0.454519C7.27274 0.203269 7.06943 -4.1008e-05 6.81818 -4.1008e-05H5.9091C5.65785 -4.1008e-05 5.45454 0.203269 5.45454 0.454519V5.45451H0.45455C0.2033 5.45451 -1.04904e-05 5.65782 -1.04904e-05 5.90907V6.81815C-1.04904e-05 7.0694 0.2033 7.27271 0.45455 7.27271Z" fill="#818694"/>
<path d="M13.1817 7.27271H19.5454C19.7966 7.27271 19.9999 7.0694 19.9999 6.81815V5.90907C19.9999 5.65782 19.7966 5.45451 19.5454 5.45451H14.5454V0.454519C14.5454 0.203269 14.3421 -4.1008e-05 14.0909 -4.1008e-05H13.1818C12.9305 -4.1008e-05 12.7272 0.203269 12.7272 0.454519V6.81815C12.7272 7.0694 12.9305 7.27271 13.1817 7.27271Z" fill="#818694"/>
<path d="M13.1817 20H14.0908C14.3421 20 14.5454 19.7967 14.5454 19.5454V14.5455H19.5454C19.7966 14.5455 19.9999 14.3421 19.9999 14.0909V13.1818C19.9999 12.9306 19.7966 12.7273 19.5454 12.7273H13.1818C12.9305 12.7273 12.7272 12.9306 12.7272 13.1818V19.5455C12.7272 19.7967 12.9305 20 13.1817 20Z" fill="#818694"/>
<path d="M0.45455 14.5454H5.45454V19.5454C5.45454 19.7967 5.65785 20 5.9091 20H6.81818C7.06943 20 7.27274 19.7967 7.27274 19.5454V13.1818C7.27274 12.9306 7.06943 12.7273 6.81818 12.7273H0.45455C0.2033 12.7273 -1.04904e-05 12.9306 -1.04904e-05 13.1818V14.0909C-1.04904e-05 14.3421 0.2033 14.5454 0.45455 14.5454Z" fill="#818694"/>
</svg>
