<svg width="26" height="26" viewBox="0 0 26 26" fill="none" xmlns="http://www.w3.org/2000/svg">
<path d="M7.58333 11.9166H9.75V14.0833H7.58333V11.9166ZM7.58333 16.25H9.75V18.4166H7.58333V16.25ZM11.9167 11.9166H14.0833V14.0833H11.9167V11.9166ZM11.9167 16.25H14.0833V18.4166H11.9167V16.25ZM16.25 11.9166H18.4167V14.0833H16.25V11.9166ZM16.25 16.25H18.4167V18.4166H16.25V16.25Z" fill="#8B929F"/>
<path d="M5.41667 23.8333H20.5833C21.7783 23.8333 22.75 22.8615 22.75 21.6666V6.49996C22.75 5.30504 21.7783 4.33329 20.5833 4.33329H18.4167V2.16663H16.25V4.33329H9.75V2.16663H7.58333V4.33329H5.41667C4.22175 4.33329 3.25 5.30504 3.25 6.49996V21.6666C3.25 22.8615 4.22175 23.8333 5.41667 23.8333ZM20.5833 8.66663L20.5844 21.6666H5.41667V8.66663H20.5833Z" fill="#8B929F"/>
</svg>
