<svg width="20" height="20" viewBox="0 0 20 20" fill="none" xmlns="http://www.w3.org/2000/svg">
<path d="M6.81818 0H0.454559C0.203309 0 0 0.20331 0 0.45456V6.81819C0 7.06944 0.203309 7.27275 0.454559 7.27275H1.36364C1.61488 7.27275 1.81819 7.06944 1.81819 6.81819V1.8182H6.81818C7.06943 1.8182 7.27274 1.61489 7.27274 1.36364V0.45456C7.27274 0.20331 7.06943 0 6.81818 0Z" fill="#818694"/>
<path d="M19.5454 0H13.1818C12.9305 0 12.7272 0.20331 12.7272 0.45456V1.36364C12.7272 1.61489 12.9305 1.8182 13.1818 1.8182H18.1818V6.81819C18.1818 7.06944 18.3851 7.27275 18.6363 7.27275H19.5454C19.7966 7.27275 19.9999 7.06944 19.9999 6.81819V0.45456C19.9999 0.20331 19.7967 0 19.5454 0Z" fill="#818694"/>
<path d="M19.5454 12.7273H18.6364C18.3851 12.7273 18.1818 12.9306 18.1818 13.1819V18.1818H13.1818C12.9305 18.1818 12.7272 18.3851 12.7272 18.6364V19.5455C12.7272 19.7967 12.9305 20 13.1818 20H19.5454C19.7966 20 19.9999 19.7967 19.9999 19.5455V13.1818C19.9999 12.9306 19.7967 12.7273 19.5454 12.7273Z" fill="#818694"/>
<path d="M6.81818 18.1819H1.81819V13.1819C1.81819 12.9306 1.61488 12.7273 1.36364 12.7273H0.454559C0.203309 12.7273 0 12.9306 0 13.1819V19.5455C0 19.7967 0.203309 20 0.454559 20H6.81818C7.06943 20 7.27274 19.7967 7.27274 19.5455V18.6364C7.27274 18.3852 7.06943 18.1819 6.81818 18.1819Z" fill="#818694"/>
</svg>
