<svg width="25" height="26" viewBox="0 0 25 26" fill="none" xmlns="http://www.w3.org/2000/svg">
<path d="M24.3831 13.2754C24.2505 12.5292 24.1178 11.7818 23.9851 11.0333L23.6085 8.86573C23.419 7.76656 23.2271 6.6662 23.0328 5.56466C23.0328 5.49715 23.008 5.42253 22.9938 5.35501C22.9571 5.06243 22.8868 4.77507 22.7841 4.49865C22.4319 3.6992 21.8362 3.03139 21.0821 2.5905C19.4523 1.56126 17.7195 0.704997 15.9119 0.0356403C15.8505 0.0127559 15.7856 0.000732302 15.72 0.000106918H8.66308C8.60116 -0.00121036 8.53959 0.00965571 8.48186 0.0320872C7.04045 0.59613 5.63846 1.25616 4.28535 2.00775L4.04727 2.14278C3.40869 2.45761 2.82545 2.87403 2.32034 3.37579C1.75611 4.02771 1.40734 4.8382 1.32185 5.69613C1.01626 7.57231 0.678691 9.47335 0.355335 11.3104C0.23689 11.9619 0.118445 12.6133 0 13.2648H4.61936V13.7054C4.61936 13.7729 4.61936 13.8298 4.61936 13.8902C4.61936 15.5745 4.61936 17.2694 4.61936 18.9608V25.7122C4.61936 25.9183 4.70109 26 4.90718 26H19.4759C19.6927 26 19.7602 25.936 19.7602 25.7228V9.2033H20.0871V13.2754H24.3831ZM12.1987 3.756C11.3669 3.75556 10.565 3.44576 9.94895 2.88686C9.33291 2.32796 8.94677 1.55992 8.86562 0.732098H15.5353C15.4533 1.56022 15.0664 2.32831 14.4498 2.88714C13.8332 3.44597 13.0308 3.75564 12.1987 3.756Z" fill="#FFD100"/>
</svg>
