<svg width="24" height="22" viewBox="0 0 24 22" fill="none" xmlns="http://www.w3.org/2000/svg">
<path d="M22.9522 4.59102H23.0549C23.3517 4.59102 23.6126 4.47116 23.7896 4.25348C23.973 4.02789 24.0409 3.71893 23.9757 3.40606L23.4848 1.04795C23.3624 0.460319 22.838 0 22.2909 0L8.56967 0.000112061H1.70923C1.16213 0.000112061 0.637675 0.460431 0.515293 1.04806L0.0241961 3.40606C-0.0409471 3.71899 0.026887 4.02789 0.21032 4.25348C0.387361 4.47116 0.648326 4.59108 0.945227 4.59108H1.04799C0.78747 5.99362 0.526449 7.39599 0.265484 8.79853L0.244629 8.91065C-0.00321788 10.2051 0.597367 11.401 1.78329 12.0148V20.5355C1.78329 21.3392 2.43713 21.9931 3.24088 21.9931H20.759C21.5628 21.9931 22.2166 21.3392 22.2166 20.5355V12.0171C23.4047 11.4039 24.0053 10.2069 23.7557 8.91239L22.9522 4.59102ZM7.74652 8.99884C7.85612 7.52959 7.96595 6.06028 8.07577 4.59102H10.8923C10.8727 6.05047 10.853 7.50968 10.833 8.96778C10.8168 9.86981 9.9781 10.43 9.20658 10.4319C8.78001 10.4319 8.3595 10.253 8.08177 9.95345C7.90989 9.76794 7.71216 9.45193 7.74652 8.99884ZM3.60831 10.4319L3.59109 10.4315L3.56962 10.4319C3.1569 10.4319 2.76256 10.2564 2.51472 9.96236C2.36072 9.77966 2.19304 9.46975 2.26883 9.02827L2.99572 4.59114H5.83231L5.38825 8.93655C5.29508 9.76957 4.51095 10.4264 3.60831 10.4319ZM11.1166 16.069C11.1166 16.3786 10.8655 16.6296 10.556 16.6296H5.73471C5.42514 16.6296 5.1741 16.3786 5.1741 16.069V14.4432C5.1741 14.1336 5.42514 13.8826 5.73471 13.8826H10.556C10.8655 13.8826 11.1166 14.1336 11.1166 14.4432V16.069ZM13.1943 8.96912L13.1332 4.59102H15.9497C16.0579 6.03269 16.1664 7.47442 16.2748 8.91604L16.281 8.99929C16.3154 9.45204 16.1178 9.76811 15.9458 9.95362C15.6683 10.253 15.248 10.4318 14.8179 10.4318C14.0502 10.4301 13.2112 9.86969 13.1943 8.96912ZM18.8259 19.2482C18.8259 19.5577 18.5749 19.8088 18.2653 19.8088H15.2662C14.9567 19.8088 14.7057 19.5577 14.7057 19.2482V14.9877C14.7057 14.6781 14.9567 14.4271 15.2662 14.4271H18.2653C18.5749 14.4271 18.8259 14.6781 18.8259 14.9877V19.2482ZM21.4853 9.96472C21.2388 10.2572 20.8465 10.4319 20.4362 10.4319L20.4255 10.4319C19.5173 10.4254 18.7326 9.7685 18.6396 8.93947C18.4908 7.49006 18.3419 6.04054 18.1933 4.59102H21.0046L21.7318 9.03085C21.8075 9.4711 21.6396 9.78168 21.4853 9.96472Z" fill="#FFD100"/>
</svg>
